HIERARCHY
ROOT Hips
{
	OFFSET	0.00	0.00	0.00
	CHANNELS 6 Xposition Yposition Zposition Zrotation Xrotation Yrotation
	JOINT LeftUpLeg
	{
		OFFSET	 0.126116	-0.014019	-0.065224
		CHANNELS 3 Zrotation Xrotation Yrotation
		JOINT LeftLeg
		{
			OFFSET	 0.000000	 0.000000	 0.569914
			CHANNELS 3 Zrotation Xrotation Yrotation
			JOINT LeftFoot
			{
				OFFSET	 0.000000	 0.000000	 0.544423
				CHANNELS 3 Zrotation Xrotation Yrotation
				JOINT LeftToeBase
				{
					OFFSET	 0.000000	 0.000000	 0.207117
					CHANNELS 3 Zrotation Xrotation Yrotation
					End Site
					{
						OFFSET	 0.000000	 0.000000	 0.207117
					}
				}
			}
		}
	}
	JOINT RightUpLeg
	{
		OFFSET	-0.124023	-0.008373	-0.065224
		CHANNELS 3 Zrotation Xrotation Yrotation
		JOINT RightLeg
		{
			OFFSET	 0.000000	 0.000000	 0.570047
			CHANNELS 3 Zrotation Xrotation Yrotation
			JOINT RightFoot
			{
				OFFSET	 0.000000	 0.000000	 0.544354
				CHANNELS 3 Zrotation Xrotation Yrotation
				JOINT RightToeBase
				{
					OFFSET	 0.000000	 0.000000	 0.207540
					CHANNELS 3 Zrotation Xrotation Yrotation
					End Site
					{
						OFFSET	 0.000000	 0.000000	 0.207540
					}
				}
			}
		}
	}
	JOINT Spine
	{
		OFFSET	 0.000184	-0.007763	 0.117403
		CHANNELS 3 Zrotation Xrotation Yrotation
		JOINT Spine1
		{
			OFFSET	 0.000000	 0.000000	 0.137269
			CHANNELS 3 Zrotation Xrotation Yrotation
			JOINT Spine2
			{
				OFFSET	 0.000000	 0.000000	 0.156879
				CHANNELS 3 Zrotation Xrotation Yrotation
				JOINT LeftShoulder
				{
					OFFSET	 0.080501	-0.002496	 0.160144
					CHANNELS 3 Zrotation Xrotation Yrotation
					JOINT LeftArm
					{
						OFFSET	 0.000000	 0.000000	 0.164363
						CHANNELS 3 Zrotation Xrotation Yrotation
						JOINT LeftForeArm
						{
							OFFSET	 0.000000	 0.000000	 0.364576
							CHANNELS 3 Zrotation Xrotation Yrotation
							JOINT LeftHand
							{
								OFFSET	 0.000000	 0.000000	 0.360812
								CHANNELS 3 Zrotation Xrotation Yrotation
								JOINT LeftHandIndex1
								{
									OFFSET	 0.000000	 0.000000	 0.086006
									CHANNELS 3 Zrotation Xrotation Yrotation
									JOINT LeftHandIndex2
									{
										OFFSET	 0.000000	 0.000000	 0.047236
										CHANNELS 3 Zrotation Xrotation Yrotation
										JOINT LeftHandIndex3
										{
											OFFSET	-0.004284	-0.000551	 0.038166
											CHANNELS 3 Zrotation Xrotation Yrotation
											End Site
											{
												OFFSET	-0.004284	-0.000551	 0.038166
											}
										}
									}
								}
							}
						}
					}
				}
				JOINT Neck
				{
					OFFSET	 0.000000	 0.000000	 0.176489
					CHANNELS 3 Zrotation Xrotation Yrotation
					JOINT Head
					{
						OFFSET	 0.000000	-0.001747	 0.077940
						CHANNELS 3 Zrotation Xrotation Yrotation
						End Site
						{
							OFFSET	 0.000000	-0.001747	 0.077940
						}
					}
				}
				JOINT RightShoulder
				{
					OFFSET	-0.080363	 0.000306	 0.159706
					CHANNELS 3 Zrotation Xrotation Yrotation
					JOINT RightArm
					{
						OFFSET	 0.000000	 0.000000	 0.164196
						CHANNELS 3 Zrotation Xrotation Yrotation
						JOINT RightForeArm
						{
							OFFSET	 0.000000	 0.000000	 0.365611
							CHANNELS 3 Zrotation Xrotation Yrotation
							JOINT RightHand
							{
								OFFSET	 0.000000	 0.000000	 0.360648
								CHANNELS 3 Zrotation Xrotation Yrotation
								JOINT RightHandIndex1
								{
									OFFSET	 0.000000	 0.000000	 0.069977
									CHANNELS 3 Zrotation Xrotation Yrotation
									JOINT RightHandIndex2
									{
										OFFSET	 0.000000	 0.000000	 0.052305
										CHANNELS 3 Zrotation Xrotation Yrotation
										JOINT RightHandIndex3
										{
											OFFSET	 0.009002	-0.000782	 0.042196
											CHANNELS 3 Zrotation Xrotation Yrotation
											End Site
											{
												OFFSET	 0.009002	-0.000782	 0.042196
											}
										}
									}
								}
							}
						}
					}
				}
			}
		}
	}
}
MOTION
Frames:    5
Frame Time: 0.03333334
 4.222784	 0.058498	-0.424310	 97.333600	-2.125252	 0.260748	 6.649480	-2.902914	-178.737700	-2.349758	-35.919870	 1.374825	 7.823807	 89.690350	-6.624391	-2.376062	 30.445870	-0.043684	 1.493954	-28.982970	 179.420800	 22.601670	-73.719780	 26.079410	 173.891900	 89.528530	-166.615200	 2.378991	 29.592950	 0.026268	 27.912500	 4.673478	 1.274462	-10.094700	-1.095837	 0.580269	-10.839030	-3.379539	-1.037537	-91.800360	 78.003330	 178.923600	 35.778030	 63.811940	-47.269330	-33.304660	 15.962540	-37.996200	 57.571620	-15.602070	 12.061450	-3.812334	 37.924440	-2.927599	-2.450526	 36.184240	 0.754587	-1.378229	 35.397820	-2.634230	-0.311987	 4.030865	-1.774707	-2.333332	-11.880900	-2.194515	 89.794460	 78.822780	 179.543600	-41.861540	 71.341090	 44.053380	 26.670400	 11.446910	 36.156490	-66.790370	-19.658060	-10.392440	 6.437017	 35.671460	-0.771858	 2.830251	 35.756010	-7.813440	-2.350882	 35.473990	 5.254307
 4.245147	 0.063121	-0.425958	 97.442930	-2.033728	-0.070729	 6.316627	-1.273396	-178.227300	-2.670895	-34.782050	 1.112621	 52.673710	 89.980220	-51.834930	-2.376571	 30.350260	-0.041560	 1.728538	-30.518030	 179.533100	 18.822700	-71.014880	 22.219750	-179.731100	 88.908360	-172.849700	 2.378190	 29.751680	 0.029759	 26.811710	 4.650023	 1.629505	-10.174590	-1.118673	 0.556800	-10.843970	-3.407724	-1.040668	-91.790950	 78.224580	 178.872000	 35.545910	 63.203990	-47.825330	-31.932090	 15.211330	-38.735720	 57.703180	-14.914490	 11.214680	-3.812334	 37.924440	-2.927599	-2.450526	 36.184240	 0.754587	-1.378229	 35.397820	-2.634230	-0.327183	 4.069975	-2.008726	-2.263376	-12.027540	-2.058461	 89.790750	 78.603060	 179.504000	-41.765010	 71.392960	 43.564270	 25.657070	 10.646790	 36.503220	-66.731450	-18.966620	-9.539362	 6.437017	 35.671460	-0.771858	 2.830251	 35.756010	-7.813440	-2.350882	 35.473990	 5.254307
 4.267544	 0.067603	-0.427258	 97.548780	-1.872300	-0.370174	 6.101223	 0.535935	-177.733900	-2.908822	-33.193440	 0.986970	 45.335080	 89.947660	-44.671950	-2.376467	 30.369820	-0.041998	 1.897468	-31.821300	 179.670500	 15.735700	-67.923370	 18.954230	-177.235800	 88.790180	-175.210000	 2.377711	 29.844960	 0.031820	 25.619600	 4.601088	 1.973861	-10.247630	-1.136874	 0.531780	-10.855580	-3.428756	-1.043773	-91.780480	 78.443410	 178.821500	 35.275020	 62.647880	-48.324810	-30.583420	 14.360740	-39.355320	 57.771900	-14.238310	 10.306330	-3.812334	 37.924440	-2.927599	-2.450526	 36.184240	 0.754587	-1.378229	 35.397820	-2.634230	-0.346111	 4.126547	-2.229272	-2.206837	-12.184550	-1.964796	 89.786230	 78.386710	 179.477400	-41.695580	 71.450680	 43.162570	 24.663230	 9.794893	 36.707980	-66.577150	-18.292300	-8.636037	 6.437017	 35.671460	-0.771858	 2.830251	 35.756010	-7.813440	-2.350882	 35.473990	 5.254307
 4.290783	 0.072004	-0.428355	 97.646970	-1.691119	-0.607132	 5.987272	 2.573323	-177.359400	-3.109329	-31.111840	 0.943084	 17.054040	 89.781500	-16.449230	-2.375333	 30.578910	-0.046651	 2.012602	-32.936950	 179.757700	 13.248570	-64.410620	 16.192580	-174.012400	 88.974930	-178.286500	 2.377729	 29.841790	 0.031743	 24.296470	 4.536885	 2.249401	-10.308640	-1.144810	 0.507911	-10.872650	-3.436605	-1.046164	-91.771230	 78.619550	 178.782200	 35.018510	 62.109410	-48.820970	-29.319840	 13.465200	-39.841730	 57.620350	-13.561790	 9.337721	-3.812334	 37.924440	-2.927599	-2.450526	 36.184240	 0.754587	-1.378229	 35.397820	-2.634230	-0.364005	 4.194956	-2.430512	-2.168695	-12.331130	-1.913589	 89.782230	 78.208500	 179.459100	-41.646500	 71.519290	 42.836720	 23.652770	 8.862687	 36.759820	-66.324570	-17.613450	-7.663065	 6.437017	 35.671460	-0.771858	 2.830251	 35.756010	-7.813440	-2.350882	 35.473990	 5.254307
 4.315895	 0.076562	-0.429359	 97.734360	-1.476039	-0.768453	 6.007211	 4.954566	-177.068900	-3.364374	-28.410620	 0.951398	 10.584940	 89.513020	-9.951136	-2.372448	 31.094060	-0.058171	 2.130134	-33.914300	 179.765600	 11.225710	-60.388090	 13.829010	-168.117700	 89.203770	 176.008500	 2.380590	 29.267240	 0.019115	 22.783240	 4.450509	 2.436711	-10.345090	-1.150661	 0.489121	-10.885790	-3.435346	-1.047318	-91.764140	 78.746500	 178.759900	 34.805710	 61.566240	-49.342980	-28.080090	 12.495930	-40.186100	 57.205980	-12.860560	 8.279493	-3.812334	 37.924440	-2.927599	-2.450526	 36.184240	 0.754587	-1.378229	 35.397820	-2.634230	-0.367241	 4.269897	-2.608863	-2.145489	-12.464990	-1.891384	 89.779390	 78.086260	 179.448400	-41.601590	 71.607850	 42.566480	 22.579240	 7.805835	 36.621940	-65.955290	-16.904320	-6.588428	 6.437017	 35.671460	-0.771858	 2.830251	 35.756010	-7.813440	-2.350882	 35.473990	 5.254307
